<?xml version="1.0" encoding="UTF-8" standalone="no"?>
<!DOCTYPE svg PUBLIC "-//W3C//DTD SVG 1.1//EN"
 "http://www.w3.org/Graphics/SVG/1.1/DTD/svg11.dtd">
<!-- Generated by graphviz version 2.43.0 (0)
 -->
<!-- Title: G Pages: 1 -->
<svg width="606pt" height="401pt"
 viewBox="0.00 0.00 606.00 401.00" xmlns="http://www.w3.org/2000/svg" xmlns:xlink="http://www.w3.org/1999/xlink">
<g id="graph0" class="graph" transform="scale(1 1) rotate(0) translate(4 397)">
<title>G</title>
<polygon fill="white" stroke="transparent" points="-4,4 -4,-397 602,-397 602,4 -4,4"/>
<g id="clust1" class="cluster">
<title>cluster_searxng</title>
<polygon fill="#fafafa" stroke="black" points="8,-8 8,-316 590,-316 590,-8 8,-8"/>
<text text-anchor="middle" x="299" y="-300.8" font-family="Sans" font-size="14.00">SearXNG&#45;SE instance</text>
</g>
<!-- browser -->
<g id="node1" class="node">
<title>browser</title>
<polygon fill="aliceblue" stroke="black" points="171,-393 111,-393 111,-397 99,-397 99,-357 171,-357 171,-393"/>
<polyline fill="none" stroke="black" points="99,-393 111,-393 "/>
<text text-anchor="middle" x="135" y="-371.3" font-family="Sans" font-size="14.00">browser</text>
</g>
<!-- rp -->
<g id="node2" class="node">
<title>rp</title>
<polygon fill="#ffffcc" stroke="black" points="191,-285 79,-285 79,-249 191,-249 191,-285"/>
<text text-anchor="middle" x="135" y="-263.3" font-family="Sans" font-size="14.00">reverse proxy</text>
</g>
<!-- browser&#45;&gt;rp -->
<g id="edge1" class="edge">
<title>browser&#45;&gt;rp</title>
<path fill="none" stroke="black" d="M135,-356.97C135,-340.38 135,-314.88 135,-295.43"/>
<polygon fill="black" stroke="black" points="138.5,-295.34 135,-285.34 131.5,-295.34 138.5,-295.34"/>
<text text-anchor="middle" x="157.5" y="-327.8" font-family="Sans" font-size="14.00">HTTPS</text>
</g>
<!-- static -->
<g id="node3" class="node">
<title>static</title>
<g id="a_node3"><a xlink:href="url to configure static files" xlink:title="static files">
<polygon fill="lightgray" stroke="black" points="581.5,-285 578.5,-289 557.5,-289 554.5,-285 494.5,-285 494.5,-249 581.5,-249 581.5,-285"/>
<text text-anchor="middle" x="538" y="-263.3" font-family="Sans" font-size="14.00">static files</text>
</a>
</g>
</g>
<!-- rp&#45;&gt;static -->
<g id="edge2" class="edge">
<title>rp&#45;&gt;static</title>
<path fill="none" stroke="black" d="M191.04,-267C268.6,-267 407.74,-267 484.13,-267"/>
<polygon fill="slategray" stroke="black" points="484.48,-270.5 494.48,-267 484.48,-263.5 484.48,-270.5"/>
<text text-anchor="middle" x="342.75" y="-273.8" font-family="Sans" font-size="14.00" fill="slategray">optional: reverse proxy serves static files</text>
</g>
<!-- uwsgi -->
<g id="node4" class="node">
<title>uwsgi</title>
<g id="a_node4"><a xlink:href="https://docs.searxng.org/utils/searx.sh.html" xlink:title="uwsgi">
<polygon fill="#ffffcc" stroke="black" points="280.14,-198 194.02,-198 171.86,-162 257.98,-162 280.14,-198"/>
<text text-anchor="middle" x="226" y="-176.3" font-family="Sans" font-size="14.00">uwsgi</text>
</a>
</g>
</g>
<!-- rp&#45;&gt;uwsgi -->
<g id="edge3" class="edge">
<title>rp&#45;&gt;uwsgi</title>
<path fill="none" stroke="black" d="M153.42,-248.8C166.86,-236.24 185.26,-219.05 200.18,-205.12"/>
<polygon fill="black" stroke="black" points="202.69,-207.56 207.61,-198.18 197.92,-202.44 202.69,-207.56"/>
<text text-anchor="middle" x="287.5" y="-219.8" font-family="Sans" font-size="14.00">http:// (tcp) or unix:// (socket)</text>
</g>
<!-- searxng1 -->
<g id="node6" class="node">
<title>searxng1</title>
<polygon fill="#ffffcc" stroke="black" points="144,-125 16,-125 16,-89 144,-89 144,-125"/>
<text text-anchor="middle" x="80" y="-103.3" font-family="Sans" font-size="14.00" fill="#0000cd">SearXNG&#45;SE #1</text>
</g>
<!-- uwsgi&#45;&gt;searxng1 -->
<g id="edge4" class="edge">
<title>uwsgi&#45;&gt;searxng1</title>
<path fill="none" stroke="black" d="M191.03,-161.99C171.04,-152.27 145.78,-139.99 124.4,-129.59"/>
<polygon fill="black" stroke="black" points="125.71,-126.34 115.19,-125.11 122.65,-132.63 125.71,-126.34"/>
</g>
<!-- searxng2 -->
<g id="node7" class="node">
<title>searxng2</title>
<polygon fill="#ffffcc" stroke="black" points="290,-125 162,-125 162,-89 290,-89 290,-125"/>
<text text-anchor="middle" x="226" y="-103.3" font-family="Sans" font-size="14.00" fill="#0000cd">SearXNG&#45;SE #2</text>
</g>
<!-- uwsgi&#45;&gt;searxng2 -->
<g id="edge6" class="edge">
<title>uwsgi&#45;&gt;searxng2</title>
<path fill="none" stroke="black" d="M226,-161.81C226,-153.79 226,-144.05 226,-135.07"/>
<polygon fill="black" stroke="black" points="229.5,-135.03 226,-125.03 222.5,-135.03 229.5,-135.03"/>
</g>
<!-- searxng3 -->
<g id="node8" class="node">
<title>searxng3</title>
<polygon fill="#ffffcc" stroke="black" points="436,-125 308,-125 308,-89 436,-89 436,-125"/>
<text text-anchor="middle" x="372" y="-103.3" font-family="Sans" font-size="14.00" fill="#0000cd">SearXNG&#45;SE #3</text>
</g>
<!-- uwsgi&#45;&gt;searxng3 -->
<g id="edge8" class="edge">
<title>uwsgi&#45;&gt;searxng3</title>
<path fill="none" stroke="black" d="M258.77,-163.07C279.07,-153.19 305.41,-140.38 327.58,-129.6"/>
<polygon fill="black" stroke="black" points="329.33,-132.64 336.79,-125.12 326.27,-126.35 329.33,-132.64"/>
</g>
<!-- searxng4 -->
<g id="node9" class="node">
<title>searxng4</title>
<polygon fill="#ffffcc" stroke="black" points="582,-125 454,-125 454,-89 582,-89 582,-125"/>
<text text-anchor="middle" x="518" y="-103.3" font-family="Sans" font-size="14.00" fill="#0000cd">SearXNG&#45;SE #4</text>
</g>
<!-- uwsgi&#45;&gt;searxng4 -->
<g id="edge10" class="edge">
<title>uwsgi&#45;&gt;searxng4</title>
<path fill="none" stroke="black" d="M262.98,-170.01C308.32,-158.98 386.23,-140.04 444.04,-125.98"/>
<polygon fill="black" stroke="black" points="444.97,-129.36 453.86,-123.6 443.32,-122.56 444.97,-129.36"/>
</g>
<!-- redis -->
<g id="node5" class="node">
<title>redis</title>
<path fill="#ffffcc" stroke="black" d="M336.5,-48.73C336.5,-50.53 319.69,-52 299,-52 278.31,-52 261.5,-50.53 261.5,-48.73 261.5,-48.73 261.5,-19.27 261.5,-19.27 261.5,-17.47 278.31,-16 299,-16 319.69,-16 336.5,-17.47 336.5,-19.27 336.5,-19.27 336.5,-48.73 336.5,-48.73"/>
<path fill="none" stroke="black" d="M336.5,-48.73C336.5,-46.92 319.69,-45.45 299,-45.45 278.31,-45.45 261.5,-46.92 261.5,-48.73"/>
<text text-anchor="middle" x="299" y="-30.3" font-family="Sans" font-size="14.00">redis DB</text>
</g>
<!-- searxng1&#45;&gt;redis -->
<g id="edge5" class="edge">
<title>searxng1&#45;&gt;redis</title>
<path fill="none" stroke="black" d="M132.46,-88.99C168.78,-77.22 216.71,-61.68 251.83,-50.29"/>
<polygon fill="black" stroke="black" points="252.94,-53.61 261.37,-47.2 250.78,-46.95 252.94,-53.61"/>
</g>
<!-- searxng2&#45;&gt;redis -->
<g id="edge7" class="edge">
<title>searxng2&#45;&gt;redis</title>
<path fill="none" stroke="black" d="M243.67,-88.81C252.82,-79.92 264.14,-68.91 274.15,-59.17"/>
<polygon fill="black" stroke="black" points="276.76,-61.51 281.49,-52.03 271.88,-56.49 276.76,-61.51"/>
</g>
<!-- searxng3&#45;&gt;redis -->
<g id="edge9" class="edge">
<title>searxng3&#45;&gt;redis</title>
<path fill="none" stroke="black" d="M354.33,-88.81C345.18,-79.92 333.86,-68.91 323.85,-59.17"/>
<polygon fill="black" stroke="black" points="326.12,-56.49 316.51,-52.03 321.24,-61.51 326.12,-56.49"/>
</g>
<!-- searxng4&#45;&gt;redis -->
<g id="edge11" class="edge">
<title>searxng4&#45;&gt;redis</title>
<path fill="none" stroke="black" d="M465.54,-88.99C429.22,-77.22 381.29,-61.68 346.17,-50.29"/>
<polygon fill="black" stroke="black" points="347.22,-46.95 336.63,-47.2 345.06,-53.61 347.22,-46.95"/>
</g>
</g>
</svg>
